<?xml version="1.0" encoding="UTF-8"?>
<svg xmlns="http://www.w3.org/2000/svg" xmlns:xlink="http://www.w3.org/1999/xlink" width="1190.55pt" height="744.09pt" viewBox="0 0 1190.55 744.09" version="1.1">
<defs>
<clipPath id="clip1">
  <path d="M 0 0 L 1190.550781 0 L 1190.550781 744.089844 L 0 744.089844 Z M 0 0 "/>
</clipPath>
<clipPath id="clip2">
  <path d="M 0 248 L 1190.550781 248 L 1190.550781 497 L 0 497 Z M 0 248 "/>
</clipPath>
</defs>
<g id="surface1">
<g clip-path="url(#clip1)" clip-rule="nonzero">
<path style=" stroke:none;fill-rule:nonzero;fill:rgb(45.483398%,67.381287%,87.5%);fill-opacity:1;" d="M 0 744.089844 L 1190.550781 744.089844 L 1190.550781 -0.00390625 L 0 -0.00390625 Z M 0 744.089844 "/>
</g>
<g clip-path="url(#clip2)" clip-rule="nonzero">
<path style=" stroke:none;fill-rule:nonzero;fill:rgb(100%,100%,100%);fill-opacity:1;" d="M 0 496.066406 L 1190.550781 496.066406 L 1190.550781 248.03125 L 0 248.03125 Z M 0 496.066406 "/>
</g>
<path style="fill-rule:nonzero;fill:rgb(96.484375%,70.506287%,5.488586%);fill-opacity:1;stroke-width:16.54;stroke-linecap:butt;stroke-linejoin:miter;stroke:rgb(52.146912%,20.384216%,3.921509%);stroke-opacity:1;stroke-miterlimit:4;" d="M 5989.648438 3380.978125 C 5984.453125 3240.665625 6070.78125 3163.517188 6059.492188 3038.204688 C 6048.203125 2912.892188 6117.03125 2842.071875 6133.007813 2793.321875 C 6148.984375 2744.610938 6115.742188 2715.470313 6130.039063 2708.55625 C 6144.375 2701.603125 6175.742188 2740.11875 6165.507813 2809.376563 C 6155.3125 2878.673438 6102.734375 2899.220313 6115.078125 3052.267188 C 6127.421875 3205.275 6052.460938 3240.939063 6070.703125 3380.509375 M 5905.742188 3700.978125 L 6329.179688 2778.439063 C 6329.179688 2778.439063 6336.484375 2760.782813 6348.203125 2765.626563 C 6359.960938 2770.509375 6352.695313 2788.126563 6352.695313 2788.126563 L 5999.765625 3739.923438 " transform="matrix(0.1,0,0,-0.1,0,744.09)"/>
<path style="fill-rule:nonzero;fill:rgb(96.484375%,70.506287%,5.488586%);fill-opacity:1;stroke-width:16.54;stroke-linecap:butt;stroke-linejoin:miter;stroke:rgb(52.146912%,20.384216%,3.921509%);stroke-opacity:1;stroke-miterlimit:4;" d="M 5856.914063 3392.696875 C 5798.4375 3265.040625 5848.632813 3160.74375 5790.273438 3049.298438 C 5731.914063 2937.853125 5768.398438 2846.05625 5764.492188 2794.9625 C 5760.585938 2743.790625 5718.75 2729.610938 5729.296875 2717.735938 C 5739.882813 2705.821875 5783.59375 2729.415625 5800.664063 2797.30625 C 5817.734375 2865.235938 5777.03125 2904.3375 5846.992188 3041.017188 C 5916.953125 3177.657813 5861.367188 3239.259375 5931.640625 3361.251563 M 5901.835938 3720.470313 L 5940.039063 2706.095313 C 5940.039063 2706.095313 5940 2686.99375 5952.734375 2686.99375 C 5965.46875 2686.99375 5965.429688 2706.05625 5965.429688 2706.05625 L 6003.59375 3720.470313 " transform="matrix(0.1,0,0,-0.1,0,744.09)"/>
<path style="fill-rule:nonzero;fill:rgb(96.484375%,70.506287%,5.488586%);fill-opacity:1;stroke-width:16.54;stroke-linecap:butt;stroke-linejoin:miter;stroke:rgb(52.146912%,20.384216%,3.921509%);stroke-opacity:1;stroke-miterlimit:4;" d="M 5738.789063 3454.3375 C 5635.898438 3358.751563 5642.382813 3243.204688 5545.78125 3162.579688 C 5449.21875 3081.915625 5447.8125 2983.165625 5424.648438 2937.4625 C 5401.445313 2891.68125 5357.382813 2894.571875 5362.578125 2879.571875 C 5367.8125 2864.532813 5417.226563 2869.571875 5458.945313 2925.782813 C 5500.703125 2981.99375 5478.085938 3033.7125 5595.039063 3133.204688 C 5711.953125 3232.657813 5684.179688 3310.860938 5795.78125 3396.642188 M 5905.703125 3739.923438 L 5552.8125 2788.165625 C 5552.8125 2788.165625 5545.46875 2770.548438 5557.226563 2765.665625 C 5568.984375 2760.782813 5576.289063 2778.439063 5576.289063 2778.439063 L 5999.726563 3701.017188 " transform="matrix(0.1,0,0,-0.1,0,744.09)"/>
<path style="fill-rule:nonzero;fill:rgb(96.484375%,70.506287%,5.488586%);fill-opacity:1;stroke-width:16.54;stroke-linecap:butt;stroke-linejoin:miter;stroke:rgb(52.146912%,20.384216%,3.921509%);stroke-opacity:1;stroke-miterlimit:4;" d="M 5653.203125 3556.485938 C 5521.601563 3507.540625 5483.359375 3398.282813 5363.28125 3360.782813 C 5243.203125 3323.24375 5204.101563 3232.540625 5165.195313 3199.142188 C 5126.289063 3165.74375 5086.640625 3185.314063 5085.703125 3169.415625 C 5084.765625 3153.517188 5132.34375 3139.298438 5192.421875 3175.235938 C 5252.539063 3211.2125 5251.40625 3267.657813 5397.539063 3314.80625 C 5543.632813 3361.954688 5547.851563 3444.80625 5683.828125 3481.36875 M 5916.757813 3756.446875 L 5226.445313 3012.189063 C 5226.445313 3012.189063 5212.96875 2998.7125 5221.953125 2989.728125 C 5230.9375 2980.704688 5244.414063 2994.18125 5244.414063 2994.18125 L 5988.710938 3684.49375 " transform="matrix(0.1,0,0,-0.1,0,744.09)"/>
<path style=" stroke:none;fill-rule:nonzero;fill:rgb(52.146912%,20.384216%,3.921509%);fill-opacity:1;" d="M 592.925781 373.152344 L 621.925781 436.515625 L 597.625 371.203125 M 601.691406 408.371094 C 602.363281 421.84375 610.003906 427.808594 608.503906 440.089844 C 611.796875 430.378906 603.855469 422.851563 604.308594 408.507813 "/>
<path style=" stroke:none;fill-rule:nonzero;fill:rgb(52.146912%,20.384216%,3.921509%);fill-opacity:1;" d="M 592.679688 372.171875 L 595.222656 441.808594 L 597.765625 372.167969 M 587.300781 408.058594 C 582.765625 420.765625 587.542969 429.199219 581.457031 439.972656 C 588.214844 432.261719 583.757813 422.265625 589.664063 409.1875 "/>
<path style=" stroke:none;fill-rule:nonzero;fill:rgb(52.146912%,20.384216%,3.921509%);fill-opacity:1;" d="M 592.828125 371.164063 L 568.527344 436.476563 L 597.527344 373.109375 M 574.125 402.265625 C 565.074219 412.269531 566.257813 421.890625 556.515625 429.511719 C 565.710938 424.976563 565.414063 414.035156 575.875 404.214844 "/>
<path style=" stroke:none;fill-rule:nonzero;fill:rgb(52.146912%,20.384216%,3.921509%);fill-opacity:1;" d="M 593.347656 370.296875 L 545.90625 421.335938 L 596.949219 373.890625 M 564.167969 391.871094 C 551.980469 397.648438 549.390625 406.992188 537.472656 410.304688 C 547.703125 409.632813 551.617188 399.414063 565.039063 394.34375 "/>
<path style="fill-rule:nonzero;fill:rgb(96.484375%,70.506287%,5.488586%);fill-opacity:1;stroke-width:16.54;stroke-linecap:butt;stroke-linejoin:miter;stroke:rgb(52.146912%,20.384216%,3.921509%);stroke-opacity:1;stroke-miterlimit:4;" d="M 5613.242188 3683.595313 C 5472.96875 3688.751563 5395.78125 3602.4625 5270.507813 3613.751563 C 5145.195313 3625.001563 5074.375 3556.173438 5025.625 3540.235938 C 4976.875 3524.259375 4947.773438 3557.501563 4940.820313 3543.165625 C 4933.90625 3528.829688 4972.382813 3497.501563 5041.640625 3507.696875 C 5110.9375 3517.93125 5131.484375 3570.509375 5284.53125 3558.165625 C 5437.578125 3545.821875 5473.203125 3620.74375 5612.8125 3602.501563 M 5933.242188 3767.501563 L 5010.703125 3344.064063 C 5010.703125 3344.064063 4993.046875 3336.759375 4997.929688 3325.001563 C 5002.773438 3313.24375 5020.429688 3320.548438 5020.429688 3320.548438 L 5972.226563 3673.478125 " transform="matrix(0.1,0,0,-0.1,0,744.09)"/>
<path style="fill-rule:nonzero;fill:rgb(96.484375%,70.506287%,5.488586%);fill-opacity:1;stroke-width:16.54;stroke-linecap:butt;stroke-linejoin:miter;stroke:rgb(52.146912%,20.384216%,3.921509%);stroke-opacity:1;stroke-miterlimit:4;" d="M 5625 3816.329688 C 5497.34375 3874.80625 5393.007813 3824.571875 5281.601563 3882.970313 C 5170.117188 3941.329688 5078.359375 3904.845313 5027.226563 3908.751563 C 4976.09375 3912.657813 4961.875 3954.49375 4950 3943.907813 C 4938.125 3933.321875 4961.679688 3889.610938 5029.609375 3872.579688 C 5097.5 3855.509375 5136.640625 3896.2125 5273.28125 3826.2125 C 5409.921875 3756.251563 5471.5625 3811.8375 5593.515625 3741.564063 M 5952.734375 3771.36875 L 4938.359375 3733.204688 C 4938.359375 3733.204688 4919.296875 3733.24375 4919.257813 3720.509375 C 4919.257813 3707.775 4938.359375 3707.775 4938.359375 3707.775 L 5952.734375 3669.610938 " transform="matrix(0.1,0,0,-0.1,0,744.09)"/>
<path style="fill-rule:nonzero;fill:rgb(96.484375%,70.506287%,5.488586%);fill-opacity:1;stroke-width:16.54;stroke-linecap:butt;stroke-linejoin:miter;stroke:rgb(52.146912%,20.384216%,3.921509%);stroke-opacity:1;stroke-miterlimit:4;" d="M 5686.601563 3934.454688 C 5591.054688 4037.30625 5475.46875 4030.860938 5394.84375 4127.423438 C 5314.21875 4223.985938 5215.46875 4225.43125 5169.726563 4248.595313 C 5123.984375 4271.759375 5126.875 4315.860938 5111.835938 4310.626563 C 5096.796875 4305.392188 5101.875 4256.017188 5158.085938 4214.259375 C 5214.296875 4172.501563 5266.015625 4195.157813 5365.46875 4078.204688 C 5464.960938 3961.251563 5543.164063 3989.025 5628.945313 3877.423438 M 5972.226563 3767.501563 L 5020.46875 4120.43125 C 5020.46875 4120.43125 5002.8125 4127.735938 4997.96875 4116.017188 C 4993.085938 4104.259375 5010.703125 4096.954688 5010.703125 4096.954688 L 5933.28125 3673.478125 " transform="matrix(0.1,0,0,-0.1,0,744.09)"/>
<path style="fill-rule:nonzero;fill:rgb(96.484375%,70.506287%,5.488586%);fill-opacity:1;stroke-width:16.54;stroke-linecap:butt;stroke-linejoin:miter;stroke:rgb(52.146912%,20.384216%,3.921509%);stroke-opacity:1;stroke-miterlimit:4;" d="M 5788.789063 4020.001563 C 5739.84375 4151.603125 5630.585938 4189.884375 5593.046875 4309.9625 C 5555.507813 4430.040625 5464.804688 4469.142188 5431.445313 4508.048438 C 5398.046875 4546.954688 5417.578125 4586.603125 5401.71875 4587.501563 C 5385.78125 4588.439063 5371.5625 4540.860938 5407.539063 4480.782813 C 5443.476563 4420.704688 5499.921875 4421.8375 5547.070313 4275.704688 C 5594.21875 4129.610938 5677.109375 4125.353125 5713.671875 3989.415625 M 5988.75 3756.485938 L 5244.492188 4446.759375 C 5244.492188 4446.759375 5231.015625 4460.275 5221.992188 4451.290625 C 5212.96875 4442.30625 5226.484375 4428.790625 5226.484375 4428.790625 L 5916.796875 3684.532813 " transform="matrix(0.1,0,0,-0.1,0,744.09)"/>
<path style=" stroke:none;fill-rule:nonzero;fill:rgb(52.146912%,20.384216%,3.921509%);fill-opacity:1;" d="M 594.164063 369.691406 L 530.800781 398.691406 L 596.113281 374.390625 M 558.949219 378.457031 C 545.476563 379.132813 539.507813 386.769531 527.230469 385.269531 C 536.941406 388.5625 544.46875 380.621094 558.808594 381.074219 "/>
<path style=" stroke:none;fill-rule:nonzero;fill:rgb(52.146912%,20.384216%,3.921509%);fill-opacity:1;" d="M 595.148438 369.445313 L 525.511719 371.988281 L 595.152344 374.53125 M 559.257813 364.066406 C 546.554688 359.535156 538.117188 364.308594 527.347656 358.222656 C 535.058594 364.984375 545.050781 360.527344 558.128906 366.429688 "/>
<path style=" stroke:none;fill-rule:nonzero;fill:rgb(52.146912%,20.384216%,3.921509%);fill-opacity:1;" d="M 596.152344 369.59375 L 530.839844 345.296875 L 594.207031 374.296875 M 565.054688 350.890625 C 555.050781 341.839844 545.429688 343.023438 537.804688 333.28125 C 542.34375 342.476563 553.28125 342.183594 563.105469 352.644531 "/>
<path style=" stroke:none;fill-rule:nonzero;fill:rgb(52.146912%,20.384216%,3.921509%);fill-opacity:1;" d="M 597.023438 370.117188 L 545.980469 322.675781 L 593.425781 373.714844 M 575.449219 340.9375 C 569.667969 328.746094 560.328125 326.15625 557.015625 314.238281 C 557.6875 324.46875 567.90625 328.386719 572.976563 341.808594 "/>
<path style="fill-rule:nonzero;fill:rgb(96.484375%,70.506287%,5.488586%);fill-opacity:1;stroke-width:16.54;stroke-linecap:butt;stroke-linejoin:miter;stroke:rgb(52.146912%,20.384216%,3.921509%);stroke-opacity:1;stroke-miterlimit:4;" d="M 5915.898438 4059.9625 C 5921.054688 4200.275 5834.726563 4277.4625 5846.015625 4402.735938 C 5857.304688 4528.048438 5788.476563 4598.86875 5772.5 4647.61875 C 5756.523438 4696.329688 5789.765625 4725.470313 5775.46875 4732.423438 C 5761.132813 4739.3375 5729.765625 4700.821875 5740 4631.564063 C 5750.195313 4562.30625 5802.773438 4541.720313 5790.429688 4388.7125 C 5778.085938 4235.665625 5853.046875 4200.001563 5834.765625 4060.43125 M 5999.804688 3739.9625 L 5576.328125 4662.501563 C 5576.328125 4662.501563 5569.023438 4680.157813 5557.265625 4675.314063 C 5545.507813 4670.43125 5552.851563 4652.814063 5552.851563 4652.814063 L 5905.742188 3701.017188 " transform="matrix(0.1,0,0,-0.1,0,744.09)"/>
<path style="fill-rule:nonzero;fill:rgb(96.484375%,70.506287%,5.488586%);fill-opacity:1;stroke-width:16.54;stroke-linecap:butt;stroke-linejoin:miter;stroke:rgb(52.146912%,20.384216%,3.921509%);stroke-opacity:1;stroke-miterlimit:4;" d="M 6048.59375 4048.24375 C 6107.070313 4175.9 6056.875 4280.196875 6115.234375 4391.642188 C 6173.59375 4503.0875 6137.148438 4594.884375 6141.015625 4646.017188 C 6144.921875 4697.15 6186.757813 4711.329688 6176.210938 4723.204688 C 6165.625 4735.11875 6121.914063 4711.564063 6104.84375 4643.634375 C 6087.773438 4575.74375 6128.476563 4536.603125 6058.515625 4399.923438 C 5988.554688 4263.282813 6044.140625 4201.68125 5973.867188 4079.689063 M 6003.671875 3720.509375 L 5965.46875 4734.884375 C 5965.46875 4734.884375 5965.507813 4753.946875 5952.773438 4753.946875 C 5940.078125 4753.985938 5940.078125 4734.884375 5940.078125 4734.884375 L 5901.875 3720.509375 " transform="matrix(0.1,0,0,-0.1,0,744.09)"/>
<path style="fill-rule:nonzero;fill:rgb(96.484375%,70.506287%,5.488586%);fill-opacity:1;stroke-width:16.54;stroke-linecap:butt;stroke-linejoin:miter;stroke:rgb(52.146912%,20.384216%,3.921509%);stroke-opacity:1;stroke-miterlimit:4;" d="M 6166.757813 3986.603125 C 6269.609375 4082.189063 6263.125 4197.775 6359.726563 4278.360938 C 6456.289063 4359.025 6457.734375 4457.775 6480.898438 4503.517188 C 6504.023438 4549.259375 6548.164063 4546.36875 6542.929688 4561.36875 C 6537.695313 4576.407813 6488.28125 4571.36875 6446.523438 4515.157813 C 6404.804688 4458.946875 6427.421875 4407.228125 6310.46875 4307.735938 C 6193.554688 4208.282813 6221.328125 4130.079688 6109.726563 4044.298438 M 5999.804688 3701.017188 L 6352.734375 4652.775 C 6352.734375 4652.775 6360.039063 4670.392188 6348.28125 4675.275 C 6336.523438 4680.157813 6329.21875 4662.501563 6329.21875 4662.501563 L 5905.78125 3739.9625 " transform="matrix(0.1,0,0,-0.1,0,744.09)"/>
<path style="fill-rule:nonzero;fill:rgb(96.484375%,70.506287%,5.488586%);fill-opacity:1;stroke-width:16.54;stroke-linecap:butt;stroke-linejoin:miter;stroke:rgb(52.146912%,20.384216%,3.921509%);stroke-opacity:1;stroke-miterlimit:4;" d="M 6252.304688 3884.454688 C 6383.90625 3933.4 6422.148438 4042.657813 6542.226563 4080.157813 C 6662.304688 4117.735938 6701.445313 4208.4 6740.351563 4241.798438 C 6779.257813 4275.196875 6818.867188 4255.626563 6819.804688 4271.525 C 6820.742188 4287.423438 6773.164063 4301.642188 6713.085938 4265.704688 C 6652.96875 4229.767188 6654.101563 4173.282813 6508.007813 4126.134375 C 6361.875 4078.985938 6357.65625 3996.134375 6221.679688 3959.571875 M 5988.789063 3684.49375 L 6679.0625 4428.751563 C 6679.0625 4428.751563 6692.539063 4442.228125 6683.554688 4451.251563 C 6674.570313 4460.235938 6661.09375 4446.759375 6661.09375 4446.759375 L 5916.796875 3756.446875 " transform="matrix(0.1,0,0,-0.1,0,744.09)"/>
<path style=" stroke:none;fill-rule:nonzero;fill:rgb(52.146912%,20.384216%,3.921509%);fill-opacity:1;" d="M 597.628906 370.929688 L 568.628906 307.570313 L 592.925781 372.882813 M 588.859375 335.714844 C 588.1875 322.242188 580.546875 316.277344 582.046875 303.996094 C 578.753906 313.707031 586.695313 321.234375 586.242188 335.574219 "/>
<path style=" stroke:none;fill-rule:nonzero;fill:rgb(52.146912%,20.384216%,3.921509%);fill-opacity:1;" d="M 597.871094 371.914063 L 595.328125 302.277344 L 592.785156 371.917969 M 603.25 336.027344 C 607.785156 323.320313 603.011719 314.886719 609.09375 304.113281 C 602.335938 311.824219 606.792969 321.820313 600.886719 334.894531 "/>
<path style=" stroke:none;fill-rule:nonzero;fill:rgb(52.146912%,20.384216%,3.921509%);fill-opacity:1;" d="M 597.726563 372.917969 L 622.023438 307.609375 L 593.023438 370.976563 M 616.425781 341.820313 C 625.476563 331.816406 624.292969 322.195313 634.039063 314.574219 C 624.84375 319.109375 625.136719 330.050781 614.675781 339.871094 "/>
<path style=" stroke:none;fill-rule:nonzero;fill:rgb(52.146912%,20.384216%,3.921509%);fill-opacity:1;" d="M 597.203125 373.789063 L 644.644531 322.75 L 593.601563 370.195313 M 626.382813 352.214844 C 638.570313 346.4375 641.160156 337.09375 653.078125 333.78125 C 642.847656 334.453125 638.933594 344.671875 625.511719 349.742188 "/>
<path style="fill-rule:nonzero;fill:rgb(96.484375%,70.506287%,5.488586%);fill-opacity:1;stroke-width:16.54;stroke-linecap:butt;stroke-linejoin:miter;stroke:rgb(52.146912%,20.384216%,3.921509%);stroke-opacity:1;stroke-miterlimit:4;" d="M 6292.265625 3757.345313 C 6432.578125 3752.189063 6509.726563 3838.478125 6635 3827.228125 C 6760.3125 3815.939063 6831.171875 3884.767188 6879.882813 3900.704688 C 6928.632813 3916.68125 6957.734375 3883.478125 6964.6875 3897.775 C 6971.640625 3912.110938 6933.125 3943.478125 6863.867188 3933.24375 C 6794.570313 3923.009375 6774.023438 3870.43125 6620.976563 3882.775 C 6467.96875 3895.157813 6432.304688 3820.196875 6292.734375 3838.439063 M 5972.265625 3673.439063 L 6894.804688 4096.915625 C 6894.804688 4096.915625 6912.460938 4104.18125 6907.578125 4115.939063 C 6902.734375 4127.696875 6885.078125 4120.392188 6885.078125 4120.392188 L 5933.320313 3767.4625 " transform="matrix(0.1,0,0,-0.1,0,744.09)"/>
<path style="fill-rule:nonzero;fill:rgb(96.484375%,70.506287%,5.488586%);fill-opacity:1;stroke-width:16.54;stroke-linecap:butt;stroke-linejoin:miter;stroke:rgb(52.146912%,20.384216%,3.921509%);stroke-opacity:1;stroke-miterlimit:4;" d="M 6280.546875 3624.610938 C 6408.164063 3566.173438 6512.5 3616.36875 6623.945313 3558.009375 C 6735.390625 3499.610938 6827.1875 3536.095313 6878.28125 3532.189063 C 6929.414063 3528.321875 6943.632813 3486.446875 6955.507813 3497.032813 C 6967.421875 3507.61875 6943.828125 3551.290625 6875.9375 3568.360938 C 6808.007813 3585.43125 6768.867188 3544.728125 6632.226563 3614.728125 C 6495.585938 3684.689063 6433.984375 3629.103125 6311.992188 3699.376563 M 5952.773438 3669.571875 L 6967.148438 3707.735938 C 6967.148438 3707.735938 6986.210938 3707.735938 6986.25 3720.43125 C 6986.25 3733.165625 6967.148438 3733.165625 6967.148438 3733.165625 L 5952.773438 3771.329688 " transform="matrix(0.1,0,0,-0.1,0,744.09)"/>
<path style="fill-rule:nonzero;fill:rgb(96.484375%,70.506287%,5.488586%);fill-opacity:1;stroke-width:16.54;stroke-linecap:butt;stroke-linejoin:miter;stroke:rgb(52.146912%,20.384216%,3.921509%);stroke-opacity:1;stroke-miterlimit:4;" d="M 6218.90625 3506.485938 C 6314.453125 3403.634375 6430.039063 3410.079688 6510.664063 3313.517188 C 6591.289063 3216.954688 6690.039063 3215.509375 6735.78125 3192.345313 C 6781.523438 3169.18125 6778.632813 3125.079688 6793.671875 3130.314063 C 6808.710938 3135.548438 6803.671875 3184.923438 6747.421875 3226.68125 C 6691.210938 3268.439063 6639.492188 3245.782813 6540.039063 3362.735938 C 6440.546875 3479.689063 6362.382813 3451.915625 6276.5625 3563.517188 M 5933.28125 3673.439063 L 6885.078125 3320.509375 C 6885.078125 3320.509375 6902.695313 3313.204688 6907.578125 3324.9625 C 6912.421875 3336.68125 6894.804688 3343.985938 6894.804688 3343.985938 L 5972.226563 3767.4625 " transform="matrix(0.1,0,0,-0.1,0,744.09)"/>
<path style="fill-rule:nonzero;fill:rgb(96.484375%,70.506287%,5.488586%);fill-opacity:1;stroke-width:16.54;stroke-linecap:butt;stroke-linejoin:miter;stroke:rgb(52.146912%,20.384216%,3.921509%);stroke-opacity:1;stroke-miterlimit:4;" d="M 6116.757813 3420.939063 C 6165.664063 3289.3375 6274.921875 3251.05625 6312.460938 3130.978125 C 6350 3010.9 6440.703125 2971.798438 6474.0625 2932.892188 C 6507.460938 2893.985938 6487.929688 2854.3375 6503.828125 2853.439063 C 6519.726563 2852.501563 6533.945313 2900.040625 6498.007813 2960.157813 C 6462.03125 3020.235938 6405.585938 3019.103125 6358.4375 3165.235938 C 6311.289063 3311.329688 6228.398438 3315.5875 6191.835938 3451.525 M 5916.757813 3684.454688 L 6661.054688 2994.18125 C 6661.054688 2994.18125 6674.492188 2980.665625 6683.515625 2989.65 C 6692.539063 2998.634375 6679.023438 3012.15 6679.023438 3012.15 L 5988.710938 3756.407813 " transform="matrix(0.1,0,0,-0.1,0,744.09)"/>
<path style=" stroke:none;fill-rule:nonzero;fill:rgb(52.146912%,20.384216%,3.921509%);fill-opacity:1;" d="M 596.386719 374.394531 L 659.75 345.394531 L 594.4375 369.695313 M 631.601563 365.628906 C 645.074219 364.953125 651.042969 357.3125 663.320313 358.8125 C 653.613281 355.519531 646.085938 363.460938 631.742188 363.011719 "/>
<path style=" stroke:none;fill-rule:nonzero;fill:rgb(52.146912%,20.384216%,3.921509%);fill-opacity:1;" d="M 595.402344 374.640625 L 665.039063 372.09375 L 595.398438 369.550781 M 631.289063 380.019531 C 643.996094 384.550781 652.433594 379.777344 663.203125 385.863281 C 655.492188 379.101563 645.5 383.558594 632.421875 377.652344 "/>
<path style=" stroke:none;fill-rule:nonzero;fill:rgb(52.146912%,20.384216%,3.921509%);fill-opacity:1;" d="M 594.398438 374.492188 L 659.710938 398.789063 L 596.34375 369.789063 M 625.496094 393.195313 C 635.503906 402.246094 645.121094 401.0625 652.746094 410.804688 C 648.207031 401.609375 637.269531 401.902344 627.445313 391.441406 "/>
<path style=" stroke:none;fill-rule:nonzero;fill:rgb(52.146912%,20.384216%,3.921509%);fill-opacity:1;" d="M 593.527344 373.96875 L 644.570313 421.410156 L 597.125 370.371094 M 615.101563 403.148438 C 620.882813 415.339844 630.222656 417.929688 633.535156 429.847656 C 632.863281 419.613281 622.644531 415.699219 617.574219 402.277344 "/>
<path style=" stroke:none;fill-rule:nonzero;fill:rgb(96.484375%,70.506287%,5.488586%);fill-opacity:1;" d="M 595.277344 330.703125 C 618.105469 330.703125 636.613281 349.210938 636.613281 372.042969 C 636.613281 394.875 618.105469 413.382813 595.277344 413.382813 C 572.445313 413.382813 553.9375 394.875 553.9375 372.042969 C 553.9375 349.210938 572.445313 330.703125 595.277344 330.703125 "/>
<path style="fill:none;stroke-width:22.32;stroke-linecap:butt;stroke-linejoin:miter;stroke:rgb(52.146912%,20.384216%,3.921509%);stroke-opacity:1;stroke-miterlimit:4;" d="M 5952.773438 4133.86875 C 6181.054688 4133.86875 6366.132813 3948.790625 6366.132813 3720.470313 C 6366.132813 3492.15 6181.054688 3307.071875 5952.773438 3307.071875 C 5724.453125 3307.071875 5539.375 3492.15 5539.375 3720.470313 C 5539.375 3948.790625 5724.453125 4133.86875 5952.773438 4133.86875 Z M 5952.773438 4133.86875 " transform="matrix(0.1,0,0,-0.1,0,744.09)"/>
<path style=" stroke:none;fill-rule:nonzero;fill:rgb(51.756287%,20.776367%,6.665039%);fill-opacity:1;" d="M 609.320313 363.855469 C 612.070313 363.804688 614.636719 365.066406 614.996094 366.320313 C 611.816406 369.816406 606.734375 369.511719 603.554688 366.96875 C 604.945313 364.742188 607.1875 363.894531 609.320313 363.855469 M 609.367188 363.203125 C 606.546875 363.203125 603.84375 364.425781 602.253906 366.96875 C 605.433594 369.832031 612.457031 370.144531 617.226563 366.644531 C 615.160156 364.417969 612.191406 363.203125 609.367188 363.203125 "/>
<path style=" stroke:none;fill-rule:nonzero;fill:rgb(52.146912%,20.384216%,3.921509%);fill-opacity:1;" d="M 609.90625 361.238281 C 605.773438 361.238281 604.816406 362.195313 602.910156 363.785156 C 601 365.375 600.046875 365.054688 599.730469 365.375 C 599.414063 365.691406 599.730469 366.644531 600.363281 366.324219 C 601 366.007813 602.273438 365.375 604.179688 363.78125 C 606.089844 362.191406 607.992188 362.191406 609.902344 362.191406 C 615.628906 362.191406 618.808594 366.960938 619.441406 366.644531 C 620.078125 366.324219 616.261719 361.238281 609.902344 361.238281 "/>
<path style=" stroke:none;fill-rule:nonzero;fill:rgb(52.146912%,20.384216%,3.921509%);fill-opacity:1;" d="M 621.347656 363.144531 C 614.035156 356.785156 604.816406 355.828125 599.726563 360.601563 C 598.480469 362.269531 597.683594 364.050781 597.355469 365.914063 C 596.714844 369.53125 597.847656 373.445313 600.683594 377.453125 C 600.363281 377.453125 599.726563 377.769531 599.40625 378.089844 C 596.882813 373.261719 595.988281 368.304688 596.816406 363.585938 C 597.035156 362.355469 597.375 361.140625 597.816406 359.960938 C 604.808594 354.238281 614.347656 353.601563 621.34375 363.144531 "/>
<path style=" stroke:none;fill-rule:nonzero;fill:rgb(52.146912%,20.384216%,3.921509%);fill-opacity:1;" d="M 609.269531 363.449219 C 610.847656 363.449219 612.128906 364.734375 612.128906 366.3125 C 612.128906 367.894531 610.847656 369.175781 609.269531 369.175781 C 607.6875 369.175781 606.40625 367.894531 606.40625 366.3125 C 606.40625 364.734375 607.6875 363.449219 609.269531 363.449219 "/>
<path style=" stroke:none;fill-rule:nonzero;fill:rgb(52.146912%,20.384216%,3.921509%);fill-opacity:1;" d="M 617.539063 368.234375 C 612.132813 372.367188 606.726563 372.050781 603.546875 370.140625 C 600.367188 368.234375 600.367188 367.597656 601.003906 367.597656 C 601.636719 367.597656 602.273438 368.234375 604.816406 369.503906 C 607.363281 370.777344 611.175781 370.777344 617.535156 368.234375 "/>
<path style=" stroke:none;fill-rule:nonzero;fill:rgb(52.146912%,20.384216%,3.921509%);fill-opacity:1;" d="M 588.949219 377.757813 C 587.59375 378.007813 586.625 379.210938 586.625 380.59375 C 586.625 382.175781 587.929688 383.429688 589.507813 383.429688 C 590.441406 383.429688 591.300781 382.988281 591.835938 382.222656 C 592.933594 383.050781 594.460938 383.136719 595.277344 383.152344 C 595.402344 383.152344 595.5625 383.152344 595.648438 383.152344 C 596.464844 383.136719 597.988281 383.050781 599.089844 382.222656 C 599.625 382.988281 600.480469 383.429688 601.414063 383.429688 C 602.992188 383.429688 604.296875 382.175781 604.296875 380.59375 C 604.296875 379.210938 603.332031 378.007813 601.972656 377.757813 C 602.734375 378.027344 603.226563 378.765625 603.226563 379.570313 C 603.226563 380.625 602.378906 381.480469 601.320313 381.480469 C 600.308594 381.480469 599.472656 380.675781 599.414063 379.664063 C 599.105469 380.28125 597.875 382.128906 595.460938 382.222656 C 593.046875 382.128906 591.820313 380.28125 591.507813 379.664063 C 591.449219 380.675781 590.613281 381.480469 589.601563 381.480469 C 588.546875 381.480469 587.695313 380.625 587.695313 379.570313 C 587.695313 378.765625 588.1875 378.027344 588.949219 377.757813 "/>
<path style=" stroke:none;fill-rule:nonzero;fill:rgb(52.146912%,20.384216%,3.921509%);fill-opacity:1;" d="M 592.0625 386.226563 C 588.878906 386.226563 587.621094 389.105469 584.761719 391.015625 C 586.351563 390.378906 587.601563 389.125 589.828125 387.851563 C 592.054688 386.582031 593.953125 388.132813 595.222656 388.132813 L 595.269531 388.132813 C 596.539063 388.132813 598.4375 386.582031 600.664063 387.851563 C 602.890625 389.125 604.1875 390.378906 605.78125 391.015625 C 602.917969 389.105469 601.613281 386.226563 598.433594 386.226563 C 597.796875 386.226563 596.539063 386.570313 595.269531 387.203125 L 595.222656 387.203125 C 593.953125 386.566406 592.695313 386.226563 592.0625 386.226563 "/>
<path style=" stroke:none;fill-rule:nonzero;fill:rgb(52.146912%,20.384216%,3.921509%);fill-opacity:1;" d="M 590.988281 389.988281 C 589.734375 390.046875 588.074219 390.296875 585.6875 391.011719 C 591.414063 389.742188 592.675781 391.664063 595.222656 391.664063 L 595.265625 391.664063 C 597.8125 391.664063 599.074219 389.742188 604.800781 391.011719 C 598.441406 389.105469 597.175781 390.363281 595.265625 390.363281 L 595.222656 390.363281 C 594.027344 390.363281 593.082031 389.898438 590.988281 389.988281 "/>
<path style=" stroke:none;fill-rule:nonzero;fill:rgb(52.146912%,20.384216%,3.921509%);fill-opacity:1;" d="M 585.972656 390.972656 C 585.605469 390.976563 585.203125 390.980469 584.765625 391.019531 C 591.445313 391.65625 588.234375 395.484375 595.230469 395.484375 L 595.273438 395.484375 C 602.269531 395.484375 599.105469 391.65625 605.785156 391.019531 C 598.789063 390.386719 601.003906 394.507813 595.273438 394.507813 L 595.230469 394.507813 C 589.859375 394.507813 591.515625 390.902344 585.972656 390.972656 "/>
<path style=" stroke:none;fill-rule:nonzero;fill:rgb(52.146912%,20.384216%,3.921509%);fill-opacity:1;" d="M 601.003906 401.300781 C 601.003906 398.140625 598.441406 395.574219 595.28125 395.574219 C 592.121094 395.574219 589.558594 398.140625 589.558594 401.300781 C 590.1875 398.652344 592.558594 396.777344 595.28125 396.777344 C 598.007813 396.777344 600.375 398.652344 601.003906 401.300781 "/>
<path style=" stroke:none;fill-rule:nonzero;fill:rgb(52.146912%,20.384216%,3.921509%);fill-opacity:1;" d="M 569.574219 363.144531 C 576.886719 356.785156 586.109375 355.828125 591.199219 360.601563 C 592.441406 362.269531 593.242188 364.050781 593.570313 365.914063 C 594.210938 369.53125 593.078125 373.445313 590.238281 377.453125 C 590.5625 377.453125 591.199219 377.769531 591.515625 378.089844 C 594.039063 373.261719 594.933594 368.304688 594.105469 363.585938 C 593.886719 362.355469 593.550781 361.140625 593.109375 359.960938 C 586.113281 354.238281 576.574219 353.601563 569.578125 363.144531 "/>
<path style=" stroke:none;fill-rule:nonzero;fill:rgb(52.146912%,20.384216%,3.921509%);fill-opacity:1;" d="M 581.019531 361.238281 C 585.152344 361.238281 586.105469 362.195313 588.015625 363.785156 C 589.925781 365.375 590.878906 365.054688 591.195313 365.375 C 591.511719 365.691406 591.195313 366.644531 590.558594 366.324219 C 589.925781 366.007813 588.648438 365.375 586.746094 363.78125 C 584.835938 362.191406 582.929688 362.191406 581.019531 362.191406 C 575.296875 362.191406 572.117188 366.960938 571.480469 366.644531 C 570.847656 366.324219 574.660156 361.238281 581.019531 361.238281 "/>
<path style=" stroke:none;fill-rule:nonzero;fill:rgb(51.756287%,20.776367%,6.665039%);fill-opacity:1;" d="M 580.777344 363.855469 C 583.523438 363.804688 586.09375 365.066406 586.449219 366.320313 C 583.269531 369.816406 578.191406 369.511719 575.011719 366.96875 C 576.402344 364.742188 578.640625 363.894531 580.777344 363.855469 M 580.824219 363.203125 C 578.003906 363.203125 575.296875 364.425781 573.710938 366.96875 C 576.890625 369.832031 583.914063 370.144531 588.683594 366.644531 C 586.617188 364.417969 583.644531 363.203125 580.824219 363.203125 "/>
<path style=" stroke:none;fill-rule:nonzero;fill:rgb(52.146912%,20.384216%,3.921509%);fill-opacity:1;" d="M 581.195313 363.449219 C 582.777344 363.449219 584.058594 364.734375 584.058594 366.3125 C 584.058594 367.894531 582.777344 369.175781 581.195313 369.175781 C 579.617188 369.175781 578.335938 367.894531 578.335938 366.3125 C 578.335938 364.734375 579.617188 363.449219 581.195313 363.449219 "/>
<path style=" stroke:none;fill-rule:nonzero;fill:rgb(52.146912%,20.384216%,3.921509%);fill-opacity:1;" d="M 573.382813 368.234375 C 578.789063 372.367188 584.195313 372.050781 587.375 370.140625 C 590.554688 368.234375 590.554688 367.597656 589.921875 367.597656 C 589.285156 367.597656 588.652344 368.234375 586.105469 369.503906 C 583.5625 370.777344 579.746094 370.777344 573.386719 368.234375 "/>
</g>
</svg>
